PathFileType	4	(X/Y/Z)	D:\TRACE\spotREDO_2-26-24\spot_justBody_Motion_2_3-platform.trc
DataRate	CameraRate	NumFrames	NumMarkers	Units	OrigDataRate	OrigDataStartFrame	OrigNumFrames
100.00	100.00	      29	5	mm	100.00	3501	      7000
Frame#	Time	Left_Front			Right_Front			Left_Aft			Right_Aft			Post			
		X1	Y1	Z1	X2	Y2	Z2	X3	Y3	Z3	X4	Y4	Z4	X5	Y5	Z5	

3501	35.000	-744.24323	-53.19324	-585.96698	670.58734	-37.97341	-501.91284	-816.07349	54.28379	627.92755	754.53162	61.49118	631.37048	-34.69360	538.35559	-1042.55750	
3502	35.010	-744.03888	-53.54517	-586.25458	670.95685	-38.37960	-502.08200	-815.64972	55.23041	627.77466	754.57880	62.30035	631.25391	-33.85167	537.42883	-1043.37781	
3503	35.020	-743.59027	-54.29008	-586.45093	671.25970	-38.71708	-502.27731	-815.20789	55.66211	627.64130	754.90942	62.92756	630.95453	-33.68304	536.46472	-1043.96594	
3504	35.030	-743.14313	-54.86759	-586.44183	671.89771	-39.41680	-502.31802	-814.68341	56.09534	627.50214	755.26996	63.22557	630.76465	-33.40711	535.43707	-1044.99805	
3505	35.040	-742.69287	-55.27158	-586.44708	672.25659	-39.67973	-502.49921	-814.17120	56.54880	627.29401	756.05829	63.53681	630.33698	-32.66664	534.64807	-1045.63257	
3506	35.050	-742.11865	-55.70706	-586.64008	672.64069	-40.13268	-502.64572	-813.80212	57.06987	627.06152	756.61456	64.13525	630.28271	-32.00501	533.82794	-1046.01147	
3507	35.060	-741.59869	-56.27722	-586.69482	673.29358	-40.71056	-502.45386	-813.30396	57.54525	626.93811	756.74847	64.70424	630.24756	-31.61731	533.17584	-1046.37573	
3508	35.070	-741.05750	-56.79774	-586.77472	673.78870	-41.12245	-502.54773	-812.77234	57.96777	626.72418	757.36444	65.12562	630.14764	-31.04366	532.30542	-1046.81604	
3509	35.080	-740.64441	-57.08731	-586.79559	674.35522	-41.35260	-502.58630	-812.16827	58.17381	626.58350	757.85419	65.48947	630.02075	-30.72693	531.86340	-1046.77271	
3510	35.090	-740.09241	-57.25943	-586.80963	674.81427	-41.64286	-502.67899	-811.72394	58.52830	626.52393	758.60327	65.75031	629.79688	-30.07383	531.22260	-1047.00024	
3511	35.100	-739.60498	-57.49097	-586.80438	675.33295	-41.90520	-502.75690	-811.10852	58.80804	626.42383	759.29224	66.26322	629.92737	-29.49132	530.77838	-1046.85962	
3512	35.110	-738.76300	-57.87353	-586.98065	675.78339	-42.03378	-502.86761	-810.64825	59.01765	626.51849	759.78705	66.37707	629.74316	-28.94598	530.11304	-1047.56714	
3513	35.120	-738.15192	-58.19582	-587.13574	676.51910	-42.20234	-503.03674	-809.84387	59.50111	626.45081	760.26776	66.57070	629.59814	-28.51289	529.85242	-1047.89160	
3514	35.130	-737.34778	-58.45011	-587.10083	677.34875	-42.48292	-502.86954	-809.48108	59.66592	626.28979	760.97723	66.92064	629.53473	-28.02431	529.48535	-1048.19531	
3515	35.140	-736.92346	-58.64964	-586.99622	678.02850	-42.58711	-502.92288	-808.74316	59.79981	626.11627	761.87280	67.24440	629.43707	-27.38890	529.23694	-1048.46033	
3516	35.150	-736.59607	-58.65305	-587.07190	678.45874	-42.53370	-502.98730	-807.92719	59.98609	626.08099	762.46246	67.40315	629.43750	-26.46711	528.75665	-1048.93408	
3517	35.160	-735.84503	-58.81757	-587.13947	678.93341	-42.63947	-503.20889	-807.41803	60.18317	625.98389	762.98102	67.52435	629.42352	-25.68099	528.39728	-1049.12170	
3518	35.170	-735.10907	-58.99733	-587.13055	680.09363	-42.82386	-503.14932	-806.81329	60.46326	625.87372	763.78619	67.46072	629.30170	-24.98857	528.29620	-1049.37097	
3519	35.180	-734.56519	-58.93224	-587.16364	680.70880	-43.04924	-502.98724	-805.95142	60.45055	625.86615	764.50763	67.79311	629.21747	-24.31658	528.13940	-1049.48987	
3520	35.190	-733.79987	-58.89474	-587.17242	681.21234	-43.13145	-503.02017	-805.32501	60.50099	625.82520	765.21869	67.98287	629.22888	-23.53376	527.98706	-1049.76355	
3521	35.200	-732.87524	-59.13404	-587.10168	681.88092	-43.07421	-503.08624	-804.50079	60.51291	625.85760	765.64850	67.97746	629.40381	-22.52721	527.97827	-1049.55225	
3522	35.210	-732.24969	-59.28018	-587.18976	682.62561	-43.00158	-503.08453	-804.20020	60.51253	625.85333	766.64948	67.78741	629.38861	-21.85802	528.00470	-1049.40466	
3523	35.220	-731.24109	-59.27865	-587.11011	683.40173	-42.99643	-503.06552	-803.13080	60.49479	625.82306	767.55920	67.81525	629.36774	-21.68303	528.10504	-1049.50122	
3524	35.230	-730.46698	-59.09958	-587.20923	684.47949	-42.77972	-503.13712	-802.27222	60.33659	625.92261	768.19830	67.80865	629.44397	-20.82283	528.39337	-1049.06287	
3525	35.240	-729.72815	-58.82748	-587.22662	684.98877	-42.61811	-503.22653	-801.66028	60.29336	626.01373	768.77637	67.65047	629.60358	-19.59735	528.57965	-1048.74915	
3526	35.250	-728.92163	-58.60202	-586.98181	685.93085	-42.66082	-502.92963	-800.61169	60.16097	626.28613	769.84619	67.23494	629.59094	-19.20820	528.79590	-1048.57227	
3527	35.260	-728.22223	-58.35883	-587.12646	686.77551	-42.52948	-503.10840	-799.73425	60.08939	626.15216	770.57733	67.30187	629.59839	-18.50787	529.32104	-1048.36450	
3528	35.270	-727.22186	-58.09953	-586.98859	687.68738	-42.24013	-502.93265	-799.19751	59.70679	626.20074	771.37207	66.91927	629.62469	-17.56430	529.89386	-1048.05688	
3529	35.280	-726.60382	-57.85317	-586.93475	688.29736	-41.88514	-502.90042	-798.15228	58.87416	626.31293	772.09869	66.37690	629.82672	-16.64981	530.26929	-1047.89221	
